<?xml version="1.0" encoding="UTF-8" standalone="no"?>
<!-- Created with Inkscape (http://www.inkscape.org/) -->

<svg
   width="328.56879pt"
   height="168.5825pt"
   viewBox="0 0 328.56879 168.5825"
   version="1.1"
   id="svg1"
   xmlns="http://www.w3.org/2000/svg"
   xmlns:svg="http://www.w3.org/2000/svg">
  <defs
     id="defs1" />
  <g
     id="layer1"
     transform="translate(-35.715609,-65.708748)">
    <path
       style="display:inline;fill:#5c76e3;fill-opacity:0.999999;stroke:#000000;stroke-width:2;stroke-linecap:round;stroke-linejoin:round;stroke-dasharray:4, 4;stroke-dashoffset:0.8;stroke-opacity:1"
       d="M 87.245541,135.02051 248.64139,145.15717"
       id="path39" />
    <path
       style="display:inline;fill:#96b3d7;fill-opacity:1;stroke:#000000;stroke-width:0.5;stroke-linecap:round;stroke-linejoin:round;stroke-dasharray:none;stroke-dashoffset:0"
       d="m 118.46319,72.318131 153.2116,-1.51252 -12.3161,37.158699 -156.61513,-4.06155 z"
       id="path10" />
    <path
       style="display:inline;fill:#96b3d7;fill-opacity:1;stroke:#000000;stroke-width:0.5;stroke-linecap:round;stroke-linejoin:round;stroke-dasharray:none;stroke-dashoffset:0"
       d="m 271.67479,70.805611 3.32418,10.17248 -13.56425,32.150399 -2.07603,-5.16418 12.3161,-37.158699"
       id="path11" />
    <path
       style="display:inline;fill:#96b3d7;fill-opacity:1;stroke:#000000;stroke-width:0.5;stroke-linecap:round;stroke-linejoin:round;stroke-dasharray:none;stroke-dashoffset:0"
       d="m 102.74356,103.90276 156.61513,4.06155 2.07603,5.16418 -156.16097,-4.92283 z"
       id="path12" />
    <path
       id="path10-5"
       style="display:inline;fill:none;fill-opacity:0.999999;stroke:#000000;stroke-width:2;stroke-linecap:round;stroke-linejoin:round;stroke-dasharray:none;stroke-dashoffset:0"
       d="m 271.67405,70.806481 -153.21093,1.51172 -15.71924,31.584959 2.52978,4.30224 156.16114,4.92334 13.56445,-32.150379 z" />
    <path
       style="display:inline;fill:#96b3d7;fill-opacity:1;stroke:#000000;stroke-width:0.5;stroke-linecap:round;stroke-linejoin:round;stroke-dasharray:none;stroke-dashoffset:0"
       d="m 106.3212,157.19122 154.01045,12.97091 -2.06101,5.84725 -154.79508,-14.19931 z"
       id="path7" />
    <path
       style="display:inline;fill:#96b3d7;fill-opacity:1;stroke:#000000;stroke-width:0.5;stroke-linecap:round;stroke-linejoin:round;stroke-dasharray:none;stroke-dashoffset:0"
       d="m 258.27064,176.00938 2.06101,-5.84725 12.28829,24.46993 -3.50974,11.56014 z"
       id="path8" />
    <path
       style="display:inline;fill:#96b3d7;fill-opacity:1;stroke:#000000;stroke-width:0.5;stroke-linecap:round;stroke-linejoin:round;stroke-dasharray:none;stroke-dashoffset:0"
       d="M 103.47556,161.81007 258.27064,176.00938 269.1102,206.1922 119.92853,188.41127 Z"
       id="path9" />
    <path
       id="path7-4"
       style="display:inline;fill:none;fill-opacity:0.999999;stroke:#000000;stroke-width:2;stroke-linecap:round;stroke-linejoin:round;stroke-dasharray:none;stroke-dashoffset:0"
       d="m 106.32105,157.19107 -2.84619,4.61866 16.45312,26.60156 149.18262,17.78174 3.50976,-11.56055 -12.28857,-24.47021 z" />
    <path
       style="display:inline;fill:#4cff44;fill-opacity:0.999999;stroke:#000000;stroke-width:1.5;stroke-linecap:round;stroke-linejoin:round;stroke-dasharray:none;stroke-dashoffset:0;stroke-opacity:1"
       d="m 153.8625,139.07965 1.33896,4.11288 -106.956276,35.9102 c -0.401929,0.2837 -2.114799,-0.0582 -2.596175,-2.15459 -0.336242,-1.46434 -0.358909,-2.54497 0.909035,-3.00882 z"
       id="path38" />
    <ellipse
       style="display:inline;fill:#c07ff6;fill-opacity:1;stroke:#000000;stroke-width:1.5;stroke-linecap:round;stroke-linejoin:round;stroke-dasharray:none;stroke-dashoffset:0;stroke-opacity:1"
       id="path36"
       cx="160.66167"
       cy="139.32396"
       rx="6.5797057"
       ry="6.5569677" />
    <path
       style="display:inline;fill:#4cff44;fill-opacity:0.999999;stroke:#000000;stroke-width:1.5;stroke-linecap:round;stroke-linejoin:round;stroke-dasharray:none;stroke-dashoffset:0;stroke-opacity:1"
       d="m 317.39377,86.156991 0.85145,2.57831 -150.62278,50.523789 c -0.44301,0.072 -2.43713,0.62543 -2.94025,-1.45848 -0.43062,-1.78361 0.87367,-2.29344 1.52378,-2.59444 z"
       id="path37" />
    <g
       id="g5"
       style="display:inline"
       transform="translate(-3.615975,8.027101)">
      <path
         d="m 362.20166,58.41064 -41.12988,13.95411 c -0.35033,2.48035 -0.20792,4.55324 0.5083,6.82763 0.65654,2.08489 1.78937,4.38641 3.57275,6.31787 l 41.29395,-13.11181 -0.19922,-0.65479 c -1.01284,-0.89611 -2.05946,-2.37717 -3.10254,-5.79345 -0.94917,-3.10872 -1.33632,-6.18973 -0.86133,-7.26856 z"
         style="display:inline;fill:#6a6a6a;fill-opacity:0.999999;stroke:#000000;stroke-width:0.5;stroke-linecap:round;stroke-linejoin:round;stroke-dasharray:none;stroke-opacity:1"
         id="path34" />
      <path
         style="display:inline;fill:#6a6a6a;fill-opacity:0.999999;stroke:#000000;stroke-width:0.5;stroke-linecap:round;stroke-linejoin:round;stroke-dasharray:none;stroke-dashoffset:0;stroke-opacity:1"
         d="m 362.20166,58.41064 c -0.6576,0.81551 -0.28534,4.13535 0.73722,7.48444 1.29868,4.25342 2.60245,5.52325 3.84026,6.37501 0.071,-2.17499 0.21328,-3.93773 -1.08711,-7.57727 -1.50301,-4.20662 -2.55624,-5.98134 -3.49037,-6.28218 z"
         id="path31-9" />
      <path
         id="path34-5"
         style="display:inline;fill:none;fill-opacity:0.999999;stroke:#000000;stroke-width:2;stroke-linecap:round;stroke-linejoin:round;stroke-dasharray:none;stroke-opacity:1"
         d="m 362.28369,58.68164 -41.12988,13.9541 c -0.35033,2.48035 -0.20792,4.55325 0.5083,6.82764 0.65654,2.08488 1.78938,4.38641 3.57275,6.31787 l 41.29395,-13.11182 -0.14649,-0.4834 c 0.16067,0.12831 0.32036,0.24532 0.47901,0.3545 0.071,-2.17499 0.21347,-3.93811 -1.08692,-7.57764 -1.503,-4.20662 -2.55659,-5.98041 -3.49072,-6.28125 z" />
    </g>
    <path
       style="display:inline;fill:#5987c0;fill-opacity:1;stroke:#000000;stroke-width:0.5;stroke-linecap:round;stroke-linejoin:round;stroke-dasharray:none;stroke-dashoffset:0;stroke-opacity:1"
       d="m 82.096425,132.68677 c -0.70819,-0.0152 -1.14348,0.96867 -1.18283,1.67594 -0.0443,0.79699 0.22837,1.6821 1.02624,1.70609 0.78461,0.0236 1.15041,-0.86034 1.20875,-1.64314 0.0547,-0.73445 -0.32199,-1.72319 -1.05216,-1.73889 z"
       id="path26-7" />
    <path
       style="display:inline;fill:#5987c0;fill-opacity:1;stroke:#000000;stroke-width:0.5;stroke-linecap:round;stroke-linejoin:round;stroke-dasharray:none;stroke-dashoffset:0;stroke-opacity:1"
       d="m 43.812862,121.40105 c -2.213408,-0.0694 -6.702257,3.39333 -7.081465,10.7391 -0.330725,6.40658 4.376281,10.84856 6.349827,10.97537 l 27.155607,1.75851 c -2.954208,-0.32303 -8.792891,-2.321 -8.198977,-12.34744 0.261118,-4.40818 3.673965,-10.33461 9.185545,-9.94832 z"
       id="path25-2" />
    <path
       id="path29"
       style="display:inline;fill:#5987c0;fill-opacity:1;stroke:#000000;stroke-width:0.5;stroke-linecap:round;stroke-linejoin:round;stroke-dasharray:none;stroke-opacity:1"
       d="m 70.711662,122.56177 c -5.211208,5.5e-4 -8.420382,5.69491 -8.67334,9.96533 -0.593914,10.02642 5.244307,12.0239 8.198509,12.34693 l 11.704324,-8.80494 c -0.79787,-0.024 -1.07116,-0.90809 -1.02686,-1.70508 0.0393,-0.70727 0.47394,-1.69244 1.18213,-1.67724 L 71.222892,122.57935 c -0.172236,-0.0121 -0.343127,-0.0176 -0.51123,-0.0176 z" />
    <path
       id="path26-7-1"
       style="display:inline;fill:none;fill-opacity:0.999999;stroke:#000000;stroke-width:2;stroke-linecap:round;stroke-linejoin:round;stroke-dasharray:none;stroke-dashoffset:0;stroke-opacity:1"
       d="m 43.813242,121.39907 c -2.213406,-0.0694 -6.701847,3.39447 -7.081054,10.74023 -0.330725,6.40657 4.376553,10.8478 6.350097,10.97461 l 27.155274,1.75928 11.702636,-8.80518 c 5e-4,2e-5 9.6e-4,-10e-6 0.002,0 0.7836,0.0224 1.14873,-0.86124 1.20703,-1.64355 0.0547,-0.73445 -0.32159,-1.72307 -1.05176,-1.73877 L 71.223399,122.57827 Z" />
    <path
       id="path22-3"
       style="display:inline;fill:#5987c0;fill-opacity:1;stroke:#000000;stroke-width:0.5;stroke-linecap:round;stroke-linejoin:round;stroke-dasharray:none"
       d="m 273.17358,133.14087 c -3.82754,3.1331 -4.90276,7.37265 -5.06836,12.90527 -0.21324,7.12455 0.40958,12.91065 3.55518,14.65137 l 41.50049,2.85059 c 0.0372,-0.0664 -4.02264,-0.49851 -3.29444,-14.11377 0.75444,-14.10587 5.44819,-14.37372 5.39209,-14.34082 z" />
    <path
       style="display:inline;fill:#5987c0;fill-opacity:1;stroke:#000000;stroke-width:0.5;stroke-linecap:round;stroke-linejoin:round;stroke-dasharray:none;stroke-dashoffset:0;stroke-opacity:1"
       d="m 315.25854,135.09351 c 0.0561,-0.0329 -4.63767,0.23503 -5.39211,14.34092 -0.7282,13.6153 3.33099,14.04806 3.29378,14.11443 -0.0181,-0.0149 4.15565,-1.28127 4.96574,-14.68578 0.66844,-11.06072 -2.95106,-13.64955 -2.86741,-13.76957 z"
       id="path13-2" />
    <path
       d="m 273.17358,133.14087 -18.91406,10.65674 c 0,0 -0.46845,1.13432 -0.52295,1.68603 -0.0778,0.78742 0.33252,2.2002 0.33252,2.2002 l 16.79883,12.42627 c -2.45269,-2.23246 -2.95647,-7.58978 -2.7627,-14.06397 0.1656,-5.53261 1.24082,-9.77217 5.06836,-12.90527 z"
       style="display:inline;fill:#5987c0;fill-opacity:1;stroke:#000000;stroke-width:0.5;stroke-linecap:round;stroke-linejoin:round;stroke-dasharray:none"
       id="path24" />
    <path
       id="path22-3-3"
       style="display:inline;fill:none;fill-opacity:0.999999;stroke:#000000;stroke-width:2;stroke-linecap:round;stroke-linejoin:round;stroke-dasharray:none"
       d="m 273.17354,133.14089 -18.91407,10.65673 c 0,0 -0.46845,1.13433 -0.52295,1.68604 -0.0778,0.78742 0.33252,2.20019 0.33252,2.20019 l 16.7959,12.42334 0.003,0.003 c 0.24629,0.22413 0.50547,0.42858 0.79248,0.58741 l 41.50049,2.85059 c -0.0181,-0.0149 4.15573,-1.28056 4.96582,-14.68507 0.66844,-11.0607 -2.95181,-13.64951 -2.86816,-13.76953 z" />
    <path
       style="display:inline;fill:#96b3d7;fill-opacity:1;stroke:#000000;stroke-width:0.5;stroke-linecap:round;stroke-linejoin:round;stroke-dasharray:none;stroke-dashoffset:0"
       d="m 40.127029,80.867721 174.194211,-0.0391 18.14845,36.253849 -166.620295,-5.91362 z"
       id="path5" />
    <path
       style="display:inline;fill:#96b3d7;fill-opacity:1;stroke:#000000;stroke-width:0.5;stroke-linecap:round;stroke-linejoin:round;stroke-dasharray:none;stroke-dashoffset:0"
       d="m 47.187616,70.511091 173.036534,-2.02084 -5.90291,12.33837 -174.194211,0.0391 z"
       id="path6" />
    <path
       style="display:inline;fill:#96b3d7;fill-opacity:1;stroke:#000000;stroke-width:0.5;stroke-linecap:round;stroke-linejoin:round;stroke-dasharray:none;stroke-dashoffset:0"
       d="m 214.32124,80.828621 5.90291,-12.33837 14.94133,42.042169 -2.69579,6.55005 z"
       id="path13" />
    <path
       id="path1-9"
       style="display:inline;fill:none;fill-opacity:0.999999;stroke:#000000;stroke-width:2;stroke-linecap:round;stroke-linejoin:round;stroke-dasharray:none;stroke-dashoffset:0"
       d="m 220.22395,68.490661 -173.036135,2.02002 -7.060549,10.35644 25.721189,30.301759 166.621585,5.91358 2.69531,-6.55079 z" />
    <path
       style="display:inline;fill:#96b3d7;fill-opacity:0.999999;stroke:#000000;stroke-width:0.5;stroke-linecap:round;stroke-linejoin:round;stroke-dasharray:none;stroke-dashoffset:0"
       d="m 44.121186,199.70428 23.206227,-35.34714 164.660707,16.43708 -18.78438,43.27059 z"
       id="path14" />
    <path
       style="display:inline;fill:#96b3d7;fill-opacity:0.999999;stroke:#000000;stroke-width:0.5;stroke-linecap:round;stroke-linejoin:round;stroke-dasharray:none;stroke-dashoffset:0"
       d="m 213.20374,224.06481 18.78438,-43.27059 2.35228,4.36601 -15.49424,48.13059 z"
       id="path15" />
    <path
       style="display:inline;fill:#96b3d7;fill-opacity:0.999999;stroke:#000000;stroke-width:0.5;stroke-linecap:round;stroke-linejoin:round;stroke-dasharray:none;stroke-dashoffset:0"
       d="m 51.205332,207.84527 -7.084146,-8.14099 169.082554,24.36053 5.64242,9.22601 z"
       id="path16" />
    <path
       id="path4-9"
       style="display:inline;fill:none;fill-opacity:0.999999;stroke:#000000;stroke-width:2;stroke-linecap:round;stroke-linejoin:round;stroke-dasharray:none;stroke-dashoffset:0"
       d="m 67.326954,164.35718 -23.206058,35.34814 7.083988,8.14013 167.641116,25.44581 15.49512,-48.13038 -2.35254,-4.3667 z" />
  </g>
</svg>
